<svg height="512pt" viewBox="0 -12 512 512" width="512pt" xmlns="http://www.w3.org/2000/svg"><path d="m440.039062 387.785156 71.960938 71.960938-28.269531 28.265625-71.957031-71.957031-71.960938 71.957031-28.269531-28.265625 71.960937-71.960938-71.960937-71.960937 28.269531-28.269531 71.960938 71.960937 71.957031-71.960937 28.269531 28.269531zm-247.082031-9.003906-11.128906-1.890625-7.363281 8.554687c-15.824219 18.378907-34.097656 28.195313-49.605469 33.421876 4.027344-10.867188 8.105469-23.90625 11.398437-38.765626l3.394532-15.3125-14.066406-6.9375c-56.804688-28.019531-85.609376-77.128906-85.609376-145.96875 0-57.871093 20.457032-101.996093 60.804688-131.144531 36.90625-26.664062 90.53125-40.761719 155.078125-40.761719s118.171875 14.097657 155.078125 40.761719c40.34375 29.148438 60.800781 73.273438 60.800781 131.144531 0 12.65625-.976562 24.652344-2.929687 35.980469h40.4375c1.628906-11.539062 2.46875-23.535156 2.46875-35.980469 0-36.175781-6.917969-68.671874-20.566406-96.585937-13-26.597656-32.109376-49.125-56.796876-66.964844-43.765624-31.617187-105.488281-48.332031-178.492187-48.332031-73.007813 0-134.730469 16.714844-178.492187 48.332031-24.6875 17.839844-43.800782 40.367188-56.800782 66.964844-13.644531 27.914063-20.566406 60.410156-20.566406 96.585937 0 78.242188 32.265625 138.09375 93.5625 174.097657-8.480469 29.914062-19.480469 48.042969-19.582031 48.207031l-18.972657 30.5 35.9375.054688h.101563.320313c11.339843 0 63.371093-2.445313 105.675781-44.886719 18.652343 2.597656 38.382812 3.910156 58.816406 3.910156 15.882813 0 31.226563-.792969 45.972656-2.355469v-40.207031c-14.59375 1.714844-29.945312 2.585937-45.972656 2.585937-22.179687 0-43.339844-1.6875-62.902344-5.007812zm0 0"/></svg>